<?xml version="1.0" encoding="UTF-8" standalone="no"?>
<!DOCTYPE svg PUBLIC "-//W3C//DTD SVG 1.1//EN" "http://www.w3.org/Graphics/SVG/1.1/DTD/svg11.dtd">
<!-- Created with Vectornator (http://vectornator.io/) -->
<svg height="100%" stroke-miterlimit="10" style="fill-rule:nonzero;clip-rule:evenodd;stroke-linecap:round;stroke-linejoin:round;" version="1.1" viewBox="0 0 256 256" width="100%" xml:space="preserve" xmlns="http://www.w3.org/2000/svg" xmlns:xlink="http://www.w3.org/1999/xlink">
<g>
<path d="M21.8578 189.323L128.265 83.3862C128.265 83.3862 153.682 79.3633 187.693 85.0319C221.704 90.7004 238.892 106.06 238.892 106.06L137.773 217.237L21.8578 189.323Z" fill="#74d7c0" fill-rule="nonzero" opacity="1" stroke="none"/>
<path d="M134.22 208.939C134.22 208.939 133.404 214.171 138.887 226.559C142.013 233.622 147.425 248.554 147.425 248.554C166.595 233.191 169.957 219.857 189.249 204.423C208.542 188.99 243.471 167.464 243.471 167.464C243.471 167.464 250.984 152.436 248.751 134.972C246.517 117.507 238.892 106.06 238.892 106.06C238.892 106.06 210.166 119.741 180.923 148.375C156.161 172.621 148.208 184.544 134.22 208.939Z" fill="#59d4aa" fill-rule="nonzero" opacity="1" stroke="none"/>
<path d="M21.8578 189.323C21.8578 189.323 15.9385 194.147 13.0046 205.585C10.0707 217.024 7.91929 224.504 9.4897 226.431C11.0601 228.358 36.5042 223.905 74.5341 228.482C112.564 233.06 147.425 248.554 147.425 248.554L134.22 208.939C134.22 208.939 114.677 192.037 80.1681 189.572C45.6596 187.107 21.8578 189.323 21.8578 189.323Z" fill="#8df4a5" fill-rule="nonzero" opacity="1" stroke="none"/>
<path d="M48.7221 144.277L45.3744 165.605L141.089 176.908L140.907 153.025L141.818 176.361L139.448 151.749" fill="#a9bcdd" fill-rule="nonzero" opacity="1" stroke="none"/>
<path d="M90.3981 42.8201C85.3333 44.9688 47.2883 91.6113 47.2883 91.6113L141.199 121.658L177.954 52.4816C177.954 52.4816 95.4628 40.6715 90.3981 42.8201Z" fill="#fb6fa1" fill-rule="nonzero" opacity="1" stroke="none"/>
<path d="M204.716 106.535L206.539 121.667L141.089 176.908L139.448 151.749L204.716 106.535Z" fill="#849fd7" fill-rule="nonzero" opacity="1" stroke="none"/>
<path d="M132.186 101.568L141.27 158.167C141.27 158.167 111.748 154.324 83.6231 151.529C55.4986 148.734 31.7412 153.45 27.3741 149.258C23.0069 145.065 43.6199 94.9304 47.2883 91.6113C50.9567 88.2923 75.5875 100.695 89.0384 102.791C102.489 104.888 132.186 101.568 132.186 101.568Z" fill="#cf849c" fill-rule="nonzero" opacity="1" stroke="none"/>
<path d="M132.011 101.219L141.27 158.167C141.27 158.167 161.184 151.005 179.177 134.41C197.169 117.814 215.511 100.695 215.686 94.7557C215.861 88.8164 183.02 49.8613 177.954 52.4816C172.888 55.1019 162.801 75.6815 156.467 82.3529C143.366 96.1532 132.011 101.219 132.011 101.219Z" fill="#ed588a" fill-rule="nonzero" opacity="1" stroke="none"/>
<path d="M119.308 75.0248C119.308 72.5361 115.052 70.055 113.367 68.7918C112.658 68.2593 111.957 68.1226 111.127 67.9152C109.885 67.6047 108.776 67.0526 107.524 66.8439C102.759 66.0498 97.9113 70.1366 96.8109 74.5378C94.9114 82.1359 102.434 84.2974 108.4 83.303C109.303 83.1526 113.698 82.1558 114.049 81.4526" fill="none" opacity="1" stroke="#81173d" stroke-linecap="round" stroke-linejoin="round" stroke-width="5.11882"/>
<path d="M135.573 60.4161C134.398 61.5905 132.931 62.4736 131.774 63.63C129.197 66.2072 126.584 69.0148 124.08 71.5187C120.777 74.8222 118.428 79.0713 115.51 82.7187C114.456 84.0367 113.029 85.3427 112.296 86.8091" fill="none" opacity="1" stroke="#81173d" stroke-linecap="round" stroke-linejoin="round" stroke-width="5.11882"/>
</g>
</svg>
